<?xml version="1.0" encoding="utf-8"?>
<!-- Generator: Adobe Illustrator 18.1.1, SVG Export Plug-In . SVG Version: 6.00 Build 0)  -->
<svg version="1.1" id="Layer_1" xmlns="http://www.w3.org/2000/svg" xmlns:xlink="http://www.w3.org/1999/xlink" x="0px" y="0px"
	 viewBox="0 0 54.15 52.651" enable-background="new 0 0 54.15 52.651" xml:space="preserve">
<g>
	<path fill="#FFFFFF" d="M41.741,11.266C38.675,8.199,34.598,6.51,30.26,6.51c-4.336,0-8.414,1.689-11.481,4.755
		c-3.066,3.067-4.755,7.144-4.755,11.481c0,3.448,1.083,6.723,3.063,9.466c-0.112,0.086-0.226,0.166-0.328,0.268l-8.153,8.153
		c-1.26,1.259-1.26,3.302,0,4.561c0.63,0.63,1.455,0.945,2.281,0.945s1.651-0.315,2.281-0.945l8.153-8.153
		c0.155-0.154,0.289-0.321,0.406-0.497c2.541,1.578,5.469,2.438,8.534,2.438c4.337,0,8.414-1.689,11.481-4.757
		C48.072,27.897,48.072,17.596,41.741,11.266z M37.18,29.665c-1.849,1.849-4.306,2.867-6.919,2.867c-2.613,0-5.07-1.019-6.919-2.867
		c-1.848-1.849-2.866-4.305-2.866-6.919c0-2.613,1.018-5.07,2.866-6.918s4.305-2.866,6.918-2.866c2.614,0,5.071,1.017,6.919,2.866
		C40.994,19.643,40.994,25.85,37.18,29.665z"/>
	<path fill="#FFFFFF" d="M34.288,17.454c-0.178-0.238-0.418-0.514-0.742-0.786c-0.322-0.272-0.72-0.554-1.2-0.795
		c-0.484-0.224-1.042-0.431-1.664-0.53c-0.62-0.12-1.298-0.121-1.994-0.036c-0.697,0.09-1.404,0.311-2.077,0.635
		c-0.327,0.178-0.66,0.343-0.996,0.609c-0.399,0.287-0.489,0.394-0.843,0.706c-0.521,0.553-0.985,1.166-1.313,1.84
		c-0.321,0.674-0.546,1.38-0.634,2.077c-0.085,0.696-0.083,1.373,0.037,1.993c0.098,0.622,0.306,1.18,0.53,1.663
		c0.24,0.481,0.522,0.878,0.794,1.2c0.27,0.322,0.549,0.567,0.79,0.75c0.222,0.2,0.435,0.277,0.563,0.365
		c0.137,0.074,0.209,0.114,0.209,0.114s-0.032-0.077-0.092-0.22c-0.057-0.139-0.172-0.35-0.257-0.605
		c-0.102-0.246-0.185-0.558-0.288-0.904c-0.087-0.351-0.148-0.746-0.193-1.161c-0.072-0.836,0.006-1.782,0.299-2.69
		c0.293-0.912,0.814-1.765,1.509-2.466c0.118-0.099,0.464-0.448,0.585-0.508c0.153-0.125,0.363-0.264,0.568-0.398
		c0.424-0.236,0.857-0.458,1.314-0.599c0.455-0.134,0.917-0.254,1.371-0.285c0.455-0.056,0.897-0.041,1.318-0.014
		c0.415,0.045,0.81,0.106,1.161,0.192c0.344,0.1,0.661,0.187,0.912,0.292c0.261,0.09,0.455,0.191,0.598,0.25
		c0.144,0.061,0.221,0.093,0.221,0.093s-0.039-0.073-0.113-0.209C34.576,17.899,34.482,17.671,34.288,17.454z"/>
</g>
<g>
</g>
<g>
</g>
<g>
</g>
<g>
</g>
<g>
</g>
<g>
</g>
</svg>
